<svg id="Layer_1" data-name="Layer 1" xmlns="http://www.w3.org/2000/svg" viewBox="0 0 139.91 139.91"><defs><style>.cls-1{fill:#fff;}.cls-2,.cls-3,.cls-4,.cls-8{fill:none;}.cls-2{stroke:#754c24;}.cls-2,.cls-3,.cls-4,.cls-5,.cls-6,.cls-7,.cls-8{stroke-linecap:round;stroke-linejoin:round;}.cls-2,.cls-3,.cls-4,.cls-5,.cls-7{stroke-width:4.73px;}.cls-3{stroke:#603813;}.cls-4{stroke:#8c6239;}.cls-5{fill:#307553;stroke:#307553;}.cls-6{fill:#067a3a;stroke:#067a3a;stroke-width:6.55px;}.cls-7{fill:#016937;stroke:#016937;}.cls-10,.cls-8{stroke:#000;}.cls-9{fill:#a32c28;stroke:#a32c28;}.cls-10,.cls-9{stroke-miterlimit:10;}</style></defs><g id="Backing"><circle class="cls-1" cx="144" cy="280" r="69.45" transform="translate(-229.86 -26.21) rotate(-45)"/><path d="M144,211.05A68.95,68.95,0,1,1,75.05,280a69,69,0,0,1,69-68.95m0-1A69.95,69.95,0,1,0,214,280,70,70,0,0,0,144,210.05Z" transform="translate(-74.05 -210.05)"/></g><g id="Tree"><path class="cls-2" d="M115.46,252.76c-2.36,24.81,28.11,1.66,28.11,21.08" transform="translate(-74.05 -210.05)"/><path class="cls-3" d="M157,252.76c1.1,24.81-10.31,2.69-13.24,21.08-.16,15.87.1,8.74,0,24.6" transform="translate(-74.05 -210.05)"/><path class="cls-4" d="M175.6,252.76c2.66,24.81-24.76,2.69-31.8,21.08-.37,15.87.24,41.55,0,57.42" transform="translate(-74.05 -210.05)"/><g id="Canopy"><path class="cls-5" d="M160.94,244l-42.73.44a2.32,2.32,0,0,1-2-3.69c3.36-4.36,10.26-11.09,21.2-11.89a29.45,29.45,0,0,1,25.47,11.44A2.32,2.32,0,0,1,160.94,244Z" transform="translate(-74.05 -210.05)"/><path class="cls-6" d="M181.81,252l-59.14.61a3.21,3.21,0,0,1-2.77-5.1c4.66-6.05,14.2-15.35,29.34-16.46a40.75,40.75,0,0,1,35.26,15.84A3.2,3.2,0,0,1,181.81,252Z" transform="translate(-74.05 -210.05)"/><path class="cls-7" d="M148.06,253.33l-42.74.44a2.31,2.31,0,0,1-2-3.68c3.37-4.37,10.26-11.1,21.2-11.9A29.45,29.45,0,0,1,150,249.64,2.31,2.31,0,0,1,148.06,253.33Z" transform="translate(-74.05 -210.05)"/></g></g><g id="CM"><path class="cls-8" d="M105.92,297.34,100,296.4" transform="translate(-74.05 -210.05)"/><path class="cls-8" d="M121.21,302.09l-5.6-2.15" transform="translate(-74.05 -210.05)"/><path class="cls-8" d="M107.85,293.68l-4.31-3.22.06-4.13" transform="translate(-74.05 -210.05)"/><path class="cls-8" d="M114.47,303.74l4.31,3.22c0,1.38,0,2.75-.07,4.13" transform="translate(-74.05 -210.05)"/><path class="cls-8" d="M116.15,295.91l5.35-.64,2-3.61" transform="translate(-74.05 -210.05)"/><path class="cls-8" d="M106.35,301.56l-5.34.64-2,3.61" transform="translate(-74.05 -210.05)"/><path d="M116.42,277.19c-6-1.46-6.33,8.17-2.73,9.6,0,0,.06,0,0-.06-1.11-1.2-.12-8.57,2.69-9.47A0,0,0,0,0,116.42,277.19Z" transform="translate(-74.05 -210.05)"/><path d="M117.14,277.38c5.87,1.74,1.39,10.2-2.44,9.68a0,0,0,0,1,0-.08c1.56-.55,4.34-7.34,2.39-9.53A0,0,0,0,1,117.14,277.38Z" transform="translate(-74.05 -210.05)"/><path id="Head" class="cls-9" d="M120.19,290.13c-1,3.73-4,3.55-7.56,2.61s-6.24-2.31-5.24-6,5.33-8.43,8.86-7.49S121.19,286.39,120.19,290.13Z" transform="translate(-74.05 -210.05)"/><path id="Thorax" class="cls-9" d="M116.67,298.92c-1,3.73-4.47,7.16-7.4,6.37S105,299.8,106,296.07s3.92-5.09,6.85-4.3S117.67,295.18,116.67,298.92Z" transform="translate(-74.05 -210.05)"/><path id="Abdomen" class="cls-10" d="M105.13,320.75a11.11,11.11,0,0,1-3-12c2.33-6.77,12.93-3.93,11.57,3.1A11.13,11.13,0,0,1,105.13,320.75Z" transform="translate(-74.05 -210.05)"/></g><g id="CM-2" data-name="CM"><path class="cls-8" d="M172.84,299.26l-5.6,2.15" transform="translate(-74.05 -210.05)"/><path class="cls-8" d="M188.46,295.73l-5.93.93" transform="translate(-74.05 -210.05)"/><path class="cls-8" d="M172.69,295.13l-5.35-.64-2-3.61" transform="translate(-74.05 -210.05)"/><path class="cls-8" d="M183.45,300.52l5.35.64,2,3.61" transform="translate(-74.05 -210.05)"/><path class="cls-8" d="M181,292.9l4.31-3.23c0-1.37,0-2.74-.07-4.12" transform="translate(-74.05 -210.05)"/><path class="cls-8" d="M175.33,302.7,171,305.92c0,1.38,0,2.75.07,4.13" transform="translate(-74.05 -210.05)"/><path d="M171.86,276.56c-5.91,1.72-1.39,10.23,2.44,9.68,0,0,0-.06,0-.08-1.55-.48-4.38-7.36-2.4-9.54C171.93,276.59,171.9,276.55,171.86,276.56Z" transform="translate(-74.05 -210.05)"/><path d="M172.58,276.36c5.95-1.43,6.3,8.14,2.73,9.6,0,0-.07,0,0-.07,1.07-1.25.09-8.52-2.69-9.45A0,0,0,0,1,172.58,276.36Z" transform="translate(-74.05 -210.05)"/><path id="Head-2" data-name="Head" class="cls-10" d="M181.6,285.87c1,3.74-1.71,5.1-5.24,6s-6.56,1.13-7.56-2.61.4-10,3.93-10.91S180.6,282.14,181.6,285.87Z" transform="translate(-74.05 -210.05)"/><path id="Thorax-2" data-name="Thorax" class="cls-10" d="M182.94,295.25c1,3.73-.29,8.44-3.22,9.22s-6.4-2.64-7.4-6.38.84-6.36,3.78-7.14S181.94,291.51,182.94,295.25Z" transform="translate(-74.05 -210.05)"/><path id="Abdomen-2" data-name="Abdomen" class="cls-9" d="M183.86,319.93a11.12,11.12,0,0,1-8.57-8.86c-1.37-7,9.23-9.87,11.57-3.1A11.13,11.13,0,0,1,183.86,319.93Z" transform="translate(-74.05 -210.05)"/></g></svg>