<svg id="Layer_1" data-name="Layer 1" xmlns="http://www.w3.org/2000/svg" viewBox="0 0 139.91 139.91"><defs><style>.cls-1{fill:#fff;}.cls-2{fill:#a32c28;stroke:#a32c28;}.cls-2,.cls-3,.cls-4{stroke-miterlimit:10;}.cls-3{fill:#8c1c1c;stroke:#8c1c1c;}.cls-4{fill:none;stroke:#fff;stroke-width:1.5px;}</style></defs><circle class="cls-1" cx="960.38" cy="540.38" r="69.45" transform="translate(-991.25 366.94) rotate(-45)"/><path d="M960.38,471.43a69,69,0,1,1-69,68.95,69,69,0,0,1,69-68.95m0-1a70,70,0,1,0,70,69.95,70,70,0,0,0-70-69.95Z" transform="translate(-890.43 -470.43)"/><path class="cls-2" d="M994.77,572.22,982.1,583.59a1.18,1.18,0,0,1-.76.29H925.61a1.13,1.13,0,0,1-1.13-1.14V497a1.13,1.13,0,0,1,1.13-1.13H994a1.14,1.14,0,0,1,1.13,1.13v74.36A1.19,1.19,0,0,1,994.77,572.22Z" transform="translate(-890.43 -470.43)"/><rect class="cls-3" x="44.04" y="35.45" width="52" height="52" rx="7.66"/><rect class="cls-1" x="103.88" y="73.95" width="4.33" height="8.33" rx="0.45"/><path class="cls-1" d="M998.14,544.88v7.33h-3.33v-7.33h3.33m.05-1h-3.43a1,1,0,0,0-1,1v7.43a1,1,0,0,0,1,1h3.43a1,1,0,0,0,.95-1v-7.43a1,1,0,0,0-.95-1Z" transform="translate(-890.43 -470.43)"/><rect class="cls-1" x="39.54" y="94.15" width="6" height="15.8" rx="1.15"/><path class="cls-1" d="M934.83,565.08a.66.66,0,0,1,.65.65v13.5a.66.66,0,0,1-.65.65h-3.71a.65.65,0,0,1-.64-.65v-13.5a.65.65,0,0,1,.64-.65h3.71m0-1h-3.71a1.64,1.64,0,0,0-1.64,1.65v13.5a1.64,1.64,0,0,0,1.64,1.65h3.71a1.65,1.65,0,0,0,1.65-1.65v-13.5a1.65,1.65,0,0,0-1.65-1.65Z" transform="translate(-890.43 -470.43)"/><rect class="cls-1" x="49.54" y="94.15" width="6" height="15.8" rx="1.15"/><path class="cls-1" d="M944.83,565.08a.66.66,0,0,1,.65.65v13.5a.66.66,0,0,1-.65.65h-3.71a.65.65,0,0,1-.64-.65v-13.5a.65.65,0,0,1,.64-.65h3.71m0-1h-3.71a1.64,1.64,0,0,0-1.64,1.65v13.5a1.64,1.64,0,0,0,1.64,1.65h3.71a1.65,1.65,0,0,0,1.65-1.65v-13.5a1.65,1.65,0,0,0-1.65-1.65Z" transform="translate(-890.43 -470.43)"/><rect class="cls-1" x="59.54" y="94.15" width="6" height="15.8" rx="1.15"/><path class="cls-1" d="M954.83,565.08a.66.66,0,0,1,.65.65v13.5a.66.66,0,0,1-.65.65h-3.71a.65.65,0,0,1-.64-.65v-13.5a.65.65,0,0,1,.64-.65h3.71m0-1h-3.71a1.64,1.64,0,0,0-1.64,1.65v13.5a1.64,1.64,0,0,0,1.64,1.65h3.71a1.65,1.65,0,0,0,1.65-1.65v-13.5a1.65,1.65,0,0,0-1.65-1.65Z" transform="translate(-890.43 -470.43)"/><rect class="cls-1" x="69.54" y="94.15" width="6" height="15.8" rx="1.15"/><path class="cls-1" d="M964.83,565.08a.66.66,0,0,1,.65.65v13.5a.66.66,0,0,1-.65.65h-3.71a.65.65,0,0,1-.64-.65v-13.5a.65.65,0,0,1,.64-.65h3.71m0-1h-3.71a1.64,1.64,0,0,0-1.64,1.65v13.5a1.64,1.64,0,0,0,1.64,1.65h3.71a1.65,1.65,0,0,0,1.65-1.65v-13.5a1.65,1.65,0,0,0-1.65-1.65Z" transform="translate(-890.43 -470.43)"/><rect class="cls-1" x="79.54" y="94.15" width="6" height="15.8" rx="1.15"/><path class="cls-1" d="M974.83,565.08a.66.66,0,0,1,.65.65v13.5a.66.66,0,0,1-.65.65h-3.71a.65.65,0,0,1-.64-.65v-13.5a.65.65,0,0,1,.64-.65h3.71m0-1h-3.71a1.64,1.64,0,0,0-1.64,1.65v13.5a1.64,1.64,0,0,0,1.64,1.65h3.71a1.65,1.65,0,0,0,1.65-1.65v-13.5a1.65,1.65,0,0,0-1.65-1.65Z" transform="translate(-890.43 -470.43)"/><rect class="cls-1" x="89.54" y="90.15" width="6" height="15.8" rx="1.15"/><path class="cls-1" d="M984.83,561.08a.66.66,0,0,1,.65.65v13.5a.66.66,0,0,1-.65.65h-3.71a.65.65,0,0,1-.64-.65v-13.5a.65.65,0,0,1,.64-.65h3.71m0-1h-3.71a1.64,1.64,0,0,0-1.64,1.65v13.5a1.64,1.64,0,0,0,1.64,1.65h3.71a1.65,1.65,0,0,0,1.65-1.65v-13.5a1.65,1.65,0,0,0-1.65-1.65Z" transform="translate(-890.43 -470.43)"/><line class="cls-4" x1="69.42" y1="55.62" x2="72.6" y2="58.8"/><line class="cls-4" x1="72.6" y1="58.8" x2="75.78" y2="61.98"/><line class="cls-4" x1="64.69" y1="58.35" x2="68.87" y2="62.53"/><line class="cls-4" x1="68.87" y1="62.53" x2="73.57" y2="67.23"/><line class="cls-4" x1="61.96" y1="63.07" x2="65.15" y2="66.25"/><line class="cls-4" x1="65.15" y1="66.25" x2="68.55" y2="69.66"/><line class="cls-4" x1="53.62" y1="69.43" x2="57.8" y2="73.6"/><line class="cls-4" x1="57.8" y1="73.6" x2="61.6" y2="77.41"/><line class="cls-4" x1="84.68" y1="53.26" x2="81.46" y2="50.03"/><line class="cls-4" x1="81.46" y1="50.03" x2="77.6" y2="46.18"/><path class="cls-4" d="M949.52,551.05a11.42,11.42,0,0,0,2.94-5.67,16.32,16.32,0,0,0,.28-5.3c-.11-1-.25-1.36-.37-2.8a15.89,15.89,0,0,1-.1-2.52,9,9,0,0,1,1.62-4.59,9.54,9.54,0,0,1,2.91-2.58,15,15,0,0,1,5.93-1.9c.39-.06.56-.08,4.53-.4s5.14-.41,7-1a11.66,11.66,0,0,0,5-2.92" transform="translate(-890.43 -470.43)"/><path class="cls-4" d="M940.85,542.39a11,11,0,0,1,5.79-2.83,16.76,16.76,0,0,1,5.52-.06c1,.16,1.43.32,2.94.51a16.06,16.06,0,0,0,2.63.2,8.69,8.69,0,0,0,4.71-1.49A8.81,8.81,0,0,0,965,535.8a14.52,14.52,0,0,0,1.72-6.1c.06-.41.07-.58.23-4.71s.21-5.34.71-7.2a11.6,11.6,0,0,1,1.24-3,11,11,0,0,1,1.6-2.09" transform="translate(-890.43 -470.43)"/></svg>