<svg id="Layer_1" data-name="Layer 1" xmlns="http://www.w3.org/2000/svg" viewBox="0 0 140 140"><defs><style>.cls-1,.cls-10,.cls-11,.cls-7,.cls-9{fill:#fff;}.cls-2{opacity:0.9;}.cls-3{fill:#63a7d5;}.cls-4{fill:#d6d629;}.cls-5{font-size:15.28px;}.cls-5,.cls-7{font-family:TrebuchetMS, Trebuchet MS;}.cls-6{fill:#a32c28;}.cls-7{font-size:7.11px;}.cls-8{fill:#1f656c;}.cls-10,.cls-11,.cls-9{stroke:#fff;stroke-miterlimit:10;}.cls-10{stroke-width:1.22px;}.cls-11{stroke-width:0.67px;}</style></defs><g id="Backing"><path class="cls-1" d="M118.48,814H118a69.65,69.65,0,0,1-32.79-8.55l-.48-.26-.5-.28-.21-.13-.29-.16-.21-.13-.29-.16A69.61,69.61,0,0,1,50.49,758c-.2-1-.36-1.94-.5-2.84-.19-1.21-.35-2.51-.49-4-.21-2.22-.32-4.46-.32-6.67a69.5,69.5,0,0,1,139,0c0,1.74-.06,3.4-.18,5s-.27,3.09-.5,4.67a69.2,69.2,0,0,1-32.76,49.74l-.14.09-.33.19-.52.31-.3.17-.2.12-.48.27A69.5,69.5,0,0,1,120,814h-1.51Z" transform="translate(-48.68 -674.51)"/><path d="M118.68,675.51a69.07,69.07,0,0,1,69,69v.09c0,1.64-.06,3.29-.18,4.9s-.27,3.07-.49,4.63a68.75,68.75,0,0,1-32.52,49.38l-.14.08-.32.19h0l0,0-.5.3-.26.16-.24.13c-.14.09-.29.17-.46.26A69,69,0,0,1,120,813.5h-2A69.08,69.08,0,0,1,85.47,805c-.15-.08-.3-.16-.44-.25l0,0,0,0c-.14-.07-.29-.15-.45-.25l-.22-.12-.28-.17-.22-.12-.28-.17A69.1,69.1,0,0,1,51,757.9c-.2-1-.36-1.92-.49-2.83-.19-1.19-.35-2.48-.49-3.93-.21-2.21-.32-4.44-.32-6.63a69.07,69.07,0,0,1,69-69m0-1a70,70,0,0,0-70,70q0,3.4.32,6.72c.13,1.34.29,2.68.5,4,.14,1,.31,1.92.5,2.87a70.1,70.1,0,0,0,33,46.65l.5.29.5.29c.16.1.33.19.5.28s.33.19.5.28a69.67,69.67,0,0,0,33,8.61h2a69.54,69.54,0,0,0,33-9c.17-.09.34-.18.5-.28l.5-.29.5-.3.5-.29a70.06,70.06,0,0,0,33-50.1c.22-1.55.39-3.12.5-4.7s.18-3.3.18-5v-.09a70,70,0,0,0-70-70Z" transform="translate(-48.68 -674.51)"/></g><g id="Waves"><g class="cls-2"><path class="cls-3" d="M188.5,749.57v-4.4c-2.13-2.69-4.38-4-6.89-4v.5c2.29,0,4.39,1.2,6.39,3.68v8.92a70.06,70.06,0,0,1-33,50.1l-.5.29-.5.3-.5.29c-.16.1-.33.19-.5.28a69.54,69.54,0,0,1-33,9h-2a69.67,69.67,0,0,1-33-8.61c-.17-.09-.34-.18-.5-.28s-.34-.18-.5-.28l-.5-.29-.5-.29A70.1,70.1,0,0,1,50,758.1V747.59a9.16,9.16,0,0,0,6.4,2.74c3.66,0,7.21-2.28,10.64-4.49,3.19-2.05,6.49-4.17,9.56-4.17v-.5c-3.22,0-6.58,2.16-9.83,4.25s-6.86,4.41-10.37,4.41c-2.52,0-4.79-1.13-6.9-3.46v8.86c-.21-1.32-.37-2.66-.5-4V745c2.47,3.17,4.93,4.33,7.4,4.33,6.73,0,13.47-8.66,20.2-8.66h0c2.47,0,4.92,1.16,7.39,4.33s4.93,4.33,7.4,4.33c6.73,0,13.47-8.66,20.2-8.66h0c2.47,0,4.92,1.16,7.39,4.33s4.93,4.33,7.4,4.33c6.73,0,13.47-8.66,20.2-8.66h0c2.47,0,4.92,1.16,7.39,4.33s4.93,4.33,7.4,4.33c6.73,0,13.47-8.66,20.2-8.66h0c2.36,0,4.71,1.06,7.07,3.93C188.68,746.27,188.62,747.93,188.5,749.57Z" transform="translate(-48.68 -674.51)"/><path class="cls-3" d="M76.6,741.17v.5c-3.07,0-6.37,2.12-9.56,4.17-3.43,2.21-7,4.49-10.64,4.49a9.16,9.16,0,0,1-6.4-2.74V758.1c-.19-1-.36-1.91-.5-2.87v-8.86c2.11,2.33,4.38,3.46,6.9,3.46,3.51,0,7-2.24,10.37-4.41S73.38,741.17,76.6,741.17Z" transform="translate(-48.68 -674.51)"/><path class="cls-3" d="M66.77,745.42c-3.37,2.17-6.86,4.41-10.37,4.41-2.52,0-4.79-1.13-6.9-3.46v8.86c.14,1,.31,1.92.5,2.87V747.59a9.16,9.16,0,0,0,6.4,2.74c3.66,0,7.21-2.28,10.64-4.49,3.19-2.05,6.49-4.17,9.56-4.17v-.5C73.38,741.17,70,743.33,66.77,745.42Z" transform="translate(-48.68 -674.51)"/></g><g class="cls-2"><path class="cls-3" d="M188.5,745.17v4.4c-.11,1.58-.28,3.15-.5,4.7v-8.92c-2-2.48-4.1-3.68-6.39-3.68v-.5C184.12,741.17,186.37,742.48,188.5,745.17Z" transform="translate(-48.68 -674.51)"/><path class="cls-3" d="M181.61,741.17v.5c2.29,0,4.39,1.2,6.39,3.68v8.92c.22-1.55.39-3.12.5-4.7v-4.4C186.37,742.48,184.12,741.17,181.61,741.17Z" transform="translate(-48.68 -674.51)"/></g></g><g id="Backing-2" data-name="Backing"><path d="M118.68,675.51a69.07,69.07,0,0,1,69,69v.09c0,1.64-.06,3.29-.18,4.9s-.27,3.07-.49,4.63a68.75,68.75,0,0,1-32.52,49.38l-.14.08-.32.19h0l0,0-.5.3-.26.16-.24.13c-.14.09-.29.17-.46.26A69,69,0,0,1,120,813.5h-2A69.08,69.08,0,0,1,85.47,805c-.15-.08-.3-.16-.44-.25l0,0,0,0c-.14-.07-.29-.15-.45-.25l-.22-.12-.28-.17-.22-.12-.28-.17A69.1,69.1,0,0,1,51,757.9c-.2-1-.36-1.92-.49-2.83-.19-1.19-.35-2.48-.49-3.93-.21-2.21-.32-4.44-.32-6.63a69.07,69.07,0,0,1,69-69m0-1a70,70,0,0,0-70,70q0,3.4.32,6.72c.13,1.34.29,2.68.5,4,.14,1,.31,1.92.5,2.87a70.1,70.1,0,0,0,33,46.65l.5.29.5.29c.16.1.33.19.5.28s.33.19.5.28a69.67,69.67,0,0,0,33,8.61h2a69.54,69.54,0,0,0,33-9c.17-.09.34-.18.5-.28l.5-.29.5-.3.5-.29a70.06,70.06,0,0,0,33-50.1c.22-1.55.39-3.12.5-4.7s.18-3.3.18-5v-.09a70,70,0,0,0-70-70Z" transform="translate(-48.68 -674.51)"/></g><g id="Sulfur"><circle class="cls-4" cx="42.34" cy="35.68" r="12"/><text class="cls-5" transform="matrix(0.93, -0.37, 0.37, 0.93, 40.58, 41.3)">S</text></g><g id="Oxygen"><circle class="cls-6" cx="97.42" cy="32.68" r="6"/><text class="cls-7" transform="matrix(0.83, 0.55, -0.55, 0.83, 94.21, 33.09)">O</text><circle class="cls-6" cx="106.42" cy="38.66" r="6"/><text class="cls-7" transform="matrix(0.83, 0.55, -0.55, 0.83, 103.21, 39.07)">O</text></g><g id="Bacterium"><circle class="cls-8" cx="70.32" cy="103.49" r="18"/><rect class="cls-8" x="128.17" y="756.04" width="2" height="8.69" rx="0.94" transform="translate(348.82 -637.22) rotate(30)"/><rect class="cls-8" x="136.37" y="762.19" width="2" height="10.42" rx="1" transform="translate(684.59 -409.78) rotate(60)"/><rect class="cls-8" x="138" y="774" width="2" height="8" rx="0.89" transform="translate(868.32 -35.51) rotate(90)"/><rect class="cls-8" x="136.96" y="783.05" width="2" height="11.78" rx="1" transform="translate(841.51 389.43) rotate(120)"/><rect class="cls-8" x="128.39" y="791.22" width="2" height="9.55" rx="0.98" transform="translate(590.76 746.14) rotate(150)"/><rect class="cls-8" x="118" y="794" width="2" height="8" rx="0.89" transform="translate(189.32 921.49) rotate(180)"/><rect class="cls-8" x="107.05" y="791.07" width="2" height="11.78" rx="1" transform="translate(-245.53 866.66) rotate(-150)"/><rect class="cls-8" x="100.97" y="784.17" width="2" height="7.32" rx="0.87" transform="translate(-578 595.55) rotate(-120)"/><rect class="cls-8" x="97" y="773" width="2" height="10" rx="0.91" transform="translate(-728.68 201.49) rotate(-90)"/><rect class="cls-8" x="100.22" y="763.21" width="2" height="9.05" rx="0.96" transform="translate(-662.95 -202.98) rotate(-60)"/><path class="cls-8" d="M111,764.14h0a1.12,1.12,0,0,1-1.48-.56l-4.91-8.51a1.14,1.14,0,0,1,.25-1.57h0a1.14,1.14,0,0,1,1.48.57l4.91,8.51A1.12,1.12,0,0,1,111,764.14Z" transform="translate(-48.68 -674.51)"/><rect class="cls-8" x="69.32" y="77.49" width="2" height="10" rx="1"/><circle class="cls-9" cx="63.82" cy="105.99" r="4.5"/><circle class="cls-10" cx="74.32" cy="96.49" r="5.5"/><circle class="cls-11" cx="75.82" cy="110.99" r="3"/></g></svg>