<svg id="Layer_1" data-name="Layer 1" xmlns="http://www.w3.org/2000/svg" viewBox="0 0 139.91 139.91"><defs><style>.cls-1{fill:#fff;}.cls-2{fill:#42210b;stroke:#42210b;stroke-width:5px;}.cls-2,.cls-8{stroke-linecap:round;stroke-linejoin:round;}.cls-3{fill:#b3b3b3;}.cls-4{fill:#4d4d4d;}.cls-5{fill:#a32c28;}.cls-6{fill:#1b1464;}.cls-7{fill:#b79d84;}.cls-8{fill:none;stroke:#000;stroke-width:2px;}</style></defs><circle class="cls-1" cx="144" cy="280" r="69.45" transform="translate(-229.86 -26.21) rotate(-45)"/><path d="M144,211.05A68.95,68.95,0,1,1,75.05,280a69,69,0,0,1,69-68.95m0-1A69.95,69.95,0,1,0,214,280,70,70,0,0,0,144,210.05Z" transform="translate(-74.05 -210.05)"/><rect class="cls-2" x="124.84" y="274.29" width="1.07" height="11.81" transform="translate(-197.34 -109.82) rotate(-30)"/><g id="Sword"><polygon class="cls-3" points="50.37 59.06 42 63.89 23.22 31.35 24.18 23.36 31.58 26.52 50.37 59.06"/><polygon class="cls-4" points="47.58 60.67 44.79 62.28 26.8 31.11 26.86 28.01 29.59 29.5 47.58 60.67"/><path id="Guard" class="cls-5" d="M129.67,271l-14.58,8.41a1.13,1.13,0,0,1-1.2,0L112,278.18a1.14,1.14,0,0,1,.06-1.94l16.31-9.42a1.14,1.14,0,0,1,1.72.92l.13,2.24A1.13,1.13,0,0,1,129.67,271Z" transform="translate(-74.05 -210.05)"/></g><rect class="cls-2" x="162.11" y="273.99" width="1.07" height="11.81" transform="translate(87.69 -253.87) rotate(30)"/><g id="Sword-2" data-name="Sword"><polygon class="cls-3" points="97.72 63.47 89.35 58.64 108.14 26.1 115.54 22.94 116.5 30.93 97.72 63.47"/><polygon class="cls-4" points="94.93 61.86 92.14 60.25 110.14 29.08 112.86 27.59 112.92 30.69 94.93 61.86"/><path id="Guard-2" data-name="Guard" class="cls-6" d="M172.82,279.09l-14.77-8.53a1,1,0,0,1-.48-.9l.15-2.63a1,1,0,0,1,1.45-.78L176,276a1,1,0,0,1,0,1.64l-2.21,1.45A1,1,0,0,1,172.82,279.09Z" transform="translate(-74.05 -210.05)"/></g><path class="cls-7" d="M132.75,301.08a17,17,0,0,1,.11,1.9c0,10.76-10.17,19.5-22.71,19.5s-22.7-8.74-22.7-19.5,10.16-19.51,22.7-19.51a25.87,25.87,0,0,1,7.6,1.12,13.44,13.44,0,0,1,10.81-5.06c7.12,0,12.89,5,12.89,11.08C141.45,295.46,137.81,299.58,132.75,301.08Z" transform="translate(-74.05 -210.05)"/><path class="cls-7" d="M155.81,301.08a14.92,14.92,0,0,0-.11,1.9c0,10.76,10.35,19.5,23.12,19.5S202,313.74,202,303s-10.35-19.51-23.13-19.51a26.82,26.82,0,0,0-7.74,1.12,13.77,13.77,0,0,0-11-5.06c-7.25,0-13.12,5-13.12,11.08C147,295.46,150.65,299.58,155.81,301.08Z" transform="translate(-74.05 -210.05)"/><line class="cls-8" x1="45.15" y1="92.45" x2="41.15" y2="92.45"/><line class="cls-8" x1="100.15" y1="92.45" x2="96.15" y2="92.45"/><path class="cls-8" d="M180.2,293.28l-6.37,3,6.37,2" transform="translate(-74.05 -210.05)"/><path class="cls-8" d="M163.21,293.28l6.37,3-6.37,2" transform="translate(-74.05 -210.05)"/><path class="cls-8" d="M109.2,293.5l6,3-6,2" transform="translate(-74.05 -210.05)"/><path class="cls-8" d="M125.2,293.5l-6,3,6,2" transform="translate(-74.05 -210.05)"/></svg>